<svg width="25" height="29" viewBox="0 0 25 29" fill="none" xmlns="http://www.w3.org/2000/svg">
<path d="M4.33742 11.4899C4.27571 12.5019 4.23916 13.4106 4.22711 14.2249L1.46175 19.7479C1.09486 20.4807 1.23115 21.2638 1.66371 21.8344C2.08971 22.3964 2.79209 22.75 3.58501 22.75H21.4147C22.2324 22.75 22.9503 22.3753 23.371 21.7869C23.7989 21.1883 23.9036 20.3767 23.482 19.6438L20.6044 14.6415C20.5971 13.7252 20.56 12.6868 20.4923 11.5132C20.479 7.4219 16.7847 4.25 12.4142 4.25C7.99261 4.25 4.58268 7.46793 4.33742 11.4899ZM11.007 1.6649C10.6963 1.86776 10.4275 2.15881 10.2976 2.53353C10.2158 2.76934 10.2434 3.01331 10.3492 3.2141C10.4444 3.3947 10.5834 3.50724 10.6899 3.57296C10.901 3.70326 11.143 3.75 11.3513 3.75L13.6487 3.75C13.857 3.75 14.099 3.70326 14.3101 3.57296C14.4166 3.50724 14.5556 3.3947 14.6508 3.2141C14.7566 3.01331 14.7842 2.76934 14.7024 2.53352C14.5725 2.15881 14.3037 1.86776 13.993 1.6649C13.5629 1.38405 13.0246 1.25 12.5 1.25C11.9754 1.25 11.4371 1.38405 11.007 1.6649ZM14.8699 26.6062C15.3194 26.0758 15.6115 25.4177 15.7308 24.723C15.858 23.9831 15.3224 23.25 14.5339 23.25H10.4661C9.67758 23.25 9.14204 23.9831 9.26915 24.723C9.3885 25.4177 9.6806 26.0758 10.1301 26.6062C10.7343 27.3191 11.583 27.75 12.5 27.75C13.417 27.75 14.2657 27.3191 14.8699 26.6062Z" stroke="black" stroke-width="2"/>
</svg>
