<svg width="21" height="25" viewBox="0 0 21 25" fill="none" xmlns="http://www.w3.org/2000/svg">
<path d="M19.6783 13.5932C21.5561 22.8871 14.7762 24 10.6767 24C6.57708 24 -0.517982 22.8871 1.289 13.6007C3.09599 4.3143 7.20793 1 10.6767 1C14.1454 1 17.8005 4.29938 19.6783 13.5932Z" fill="white"/>
<path d="M19.8462 14.6287C13.7618 16.8051 7.1086 16.7899 1.03421 14.5857M19.6783 13.5932C21.5561 22.8871 14.7762 24 10.6767 24C6.57708 24 -0.517982 22.8871 1.289 13.6007C3.09599 4.3143 7.20793 1 10.6767 1C14.1454 1 17.8005 4.29938 19.6783 13.5932Z" stroke="#949494" stroke-width="1.5"/>
</svg>
