<svg width="19" height="23" viewBox="0 0 19 23" fill="none" xmlns="http://www.w3.org/2000/svg">
<path d="M17.9431 12.7418C17.9691 12.8703 17.9933 12.997 18.0158 13.1219C12.4776 14.9627 6.49209 14.959 0.957468 13.113C0.978358 12.9917 1.00092 12.8687 1.02519 12.7439C2.81219 3.56028 6.77154 0.75 9.67665 0.75C11.1429 0.75 12.7209 1.43723 14.1874 3.27865C15.6679 5.13764 17.0171 8.15841 17.9431 12.7418ZM0.774225 14.6314C6.4429 16.4546 12.5426 16.4565 18.2139 14.6352C18.3166 15.9642 18.1941 17.0431 17.9238 17.9189C17.5387 19.1667 16.8405 20.0455 15.9768 20.676C14.2085 21.9668 11.6987 22.25 9.67666 22.25C7.65628 22.25 5.05835 21.9677 3.19732 20.6679C2.28686 20.032 1.54724 19.149 1.12775 17.9038C0.833653 17.0309 0.688997 15.9558 0.774225 14.6314Z" fill="white" stroke="#949494" stroke-width="1.5"/>
</svg>
