<svg width="21" height="25" viewBox="0 0 21 25" fill="none" xmlns="http://www.w3.org/2000/svg">
<path d="M15.3719 5.97297C15.3719 8.71947 13.1907 10.9459 10.5 10.9459C7.80934 10.9459 5.62812 8.71947 5.62812 5.97297C5.62812 3.22648 7.80934 1 10.5 1C13.1907 1 15.3719 3.22648 15.3719 5.97297Z" fill="white"/>
<path d="M3.19219 24C1.84686 24 0.726321 22.8699 1.05916 21.5393C1.17362 21.0818 1.32011 20.6321 1.49795 20.1938C1.98762 18.9872 2.70534 17.8907 3.61013 16.9672C4.51492 16.0436 5.58906 15.311 6.77123 14.8111C7.95339 14.3113 9.22043 14.0541 10.5 14.0541C11.7796 14.0541 13.0466 14.3113 14.2288 14.8111C15.4109 15.311 16.4851 16.0436 17.3899 16.9672C18.2947 17.8907 19.0124 18.9872 19.5021 20.1938C19.6799 20.6321 19.8264 21.0818 19.9408 21.5393C20.2737 22.8699 19.1531 24 17.8078 24L3.19219 24Z" fill="white"/>
<path d="M15.3719 5.97297C15.3719 8.71947 13.1907 10.9459 10.5 10.9459C7.80934 10.9459 5.62812 8.71947 5.62812 5.97297C5.62812 3.22648 7.80934 1 10.5 1C13.1907 1 15.3719 3.22648 15.3719 5.97297Z" stroke="#949494" stroke-width="1.5"/>
<path d="M3.19219 24C1.84686 24 0.726321 22.8699 1.05916 21.5393C1.17362 21.0818 1.32011 20.6321 1.49795 20.1938C1.98762 18.9872 2.70534 17.8907 3.61013 16.9672C4.51492 16.0436 5.58906 15.311 6.77123 14.8111C7.95339 14.3113 9.22043 14.0541 10.5 14.0541C11.7796 14.0541 13.0466 14.3113 14.2288 14.8111C15.4109 15.311 16.4851 16.0436 17.3899 16.9672C18.2947 17.8907 19.0124 18.9872 19.5021 20.1938C19.6799 20.6321 19.8264 21.0818 19.9408 21.5393C20.2737 22.8699 19.1531 24 17.8078 24L3.19219 24Z" stroke="#949494" stroke-width="1.5"/>
</svg>
