<svg width="21" height="37" viewBox="0 0 21 37" fill="none" xmlns="http://www.w3.org/2000/svg">
<path d="M9.21105 1.16539C9.79262 0.188358 11.2074 0.18836 11.7889 1.16539L20.2955 15.4565C21.0687 16.7554 19.6526 18.2529 18.3126 17.5535L11.5115 14.0038C11.0868 13.7822 10.5818 13.7767 10.1524 13.9891L2.55079 17.749C1.21114 18.4117 -0.167624 16.9216 0.596824 15.6373L9.21105 1.16539Z" fill="#ffffff"/>
<path d="M8.00001 15.5C8.00001 14.1193 9.11929 13 10.5 13C11.8807 13 13 14.1193 13 15.5V20.2461C13 21.3814 12.6136 22.483 11.9043 23.3695L8.09565 28.1304C7.38639 29.017 6.99999 30.1185 6.99999 31.2539V34.5C6.99999 35.8807 5.8807 37 4.49999 37C3.11928 37 1.99999 35.8807 1.99999 34.5V29.3496C1.99999 28.156 2.42695 27.0019 3.20371 26.0956L6.79628 21.9043C7.57304 20.9981 8.00001 19.8439 8.00001 18.6503V15.5Z" fill="#ffffff"/>
</svg>
